<svg width="160px" height="60px" viewBox="0 0 160 60" version="1.1" xmlns="http://www.w3.org/2000/svg" xmlns:xlink="http://www.w3.org/1999/xlink">
    <defs></defs>
    <g id="Symbols" stroke="none" stroke-width="1" fill="none" fill-rule="evenodd">
        <g id="shop_etsy" fill="#FFFFFF" fill-rule="nonzero">
            <path d="M65.4026357,26.6129945 L65.4026357,13.6112593 C65.4026357,13.1294911 65.4507007,12.8405446 66.2698081,12.8405446 L77.2975746,12.8405446 C79.2241794,12.8405446 80.2836117,14.4780989 81.0543681,17.5598137 L81.6803572,20.0161452 L83.5583248,20.0161452 C83.8950658,13.0339385 84.1837418,10 84.1837418,10 C84.1837418,10 79.4645043,10.5295446 76.6712993,10.5295446 L62.5619379,10.5295446 L55,10.2886604 L55,12.3112861 L57.55288,12.7927683 C59.3347176,13.1300632 59.7673025,13.5148485 59.9129279,15.1526889 C59.9129279,15.1526889 60.0576951,19.9680828 60.0576951,27.9141121 C60.0576951,35.8589971 59.9129279,40.6269008 59.9129279,40.6269008 C59.9129279,42.0713473 59.3347176,42.6008918 57.55288,42.9390451 L55,43.4208134 L55,45.4422947 L62.5619379,45.2019827 L75.1792822,45.2019827 C78.0205521,45.2019827 84.6180432,45.4422947 84.6180432,45.4422947 C84.7619521,43.7083294 85.7258267,35.8589971 85.8703077,34.9933019 L84.0884701,34.9933019 L82.2102165,39.2791512 C80.7170549,42.6492403 78.5504113,42.8904105 76.1420123,42.8904105 L68.9660248,42.8904105 C66.5579119,42.8904105 65.4020635,41.9271601 65.4020635,39.8567582 L65.4020635,28.8770765 C65.4020635,28.8770765 70.6511602,28.8770765 72.4807767,29.0218358 C73.8294572,29.1185328 74.6477063,29.5036041 75.0817217,31.3814704 L75.659932,33.8855782 L77.7295873,33.8855782 L77.5856784,27.576531 L77.8743544,21.2205658 L75.8041269,21.2205658 L75.1303589,24.0133341 C74.6963435,25.843138 74.4079536,26.1810052 72.5294138,26.3729686 C70.4108353,26.6144249 65.4017774,26.5660765 65.4017774,26.5660765 L65.4017774,26.6138528 L65.4026357,26.6138528 L65.4026357,26.6129945 Z M93.9601022,14.9598672 C93.2857619,17.9454571 92.6114216,20.2567432 90.2516598,21.7978867 C88.8071354,22.760565 87.3620388,23.0972878 86.7849729,23.1456363 L86.7849729,24.9754402 L91.0707673,24.9754402 L91.0707673,39.7589169 C91.0707673,43.9008651 93.8161933,45.9237768 97.4757124,45.9237768 C100.317268,45.9237768 103.254382,44.7199284 104.266036,42.2152484 L103.254382,40.914989 C102.772588,41.7340523 101.232506,42.9376147 99.3059011,42.9376147 C97.1873225,42.9376147 96.0314741,41.492596 96.0314741,37.8335603 L96.0314741,24.7837628 L103.159397,25.3138795 L103.544203,22.0384847 L96.0317602,22.3277173 L96.0317602,15.0076435 L93.9601022,14.9598672 Z M109.178391,37.6991001 L107.348489,37.7471625 C107.444619,38.8062516 107.493256,40.1551455 107.493256,41.4070564 C107.493256,42.7073157 107.445191,43.9111642 107.348489,44.4887711 C107.348489,44.4887711 111.00858,45.8359485 114.716736,45.8359485 C119.725222,45.8359485 123.722626,43.4282516 123.722626,38.7089825 C123.722626,30.6199103 111.58679,31.8240449 111.58679,26.3815512 C111.58679,24.1186136 113.609239,23.251488 115.82452,23.251488 C117.558292,23.251488 119.002817,23.8774434 119.291779,24.7932036 L120.495978,28.404749 L122.278102,28.3086242 C122.422869,26.3821234 122.518713,24.1669621 122.807961,22.3855067 C121.266449,21.7112027 118.039514,21.3252732 116.018496,21.3252732 C111.297828,21.3252732 107.494114,23.3962473 107.494114,28.0193916 C107.494114,36.0609736 119.340416,34.4237053 119.340416,40.3476812 C119.340416,42.4655733 118.039514,43.9586544 115.102687,43.9586544 C112.40647,43.9586544 111.057503,42.5625564 110.528789,41.165314 L109.178391,37.6991001 Z M138.204205,43.2623219 C135.41615,51.0498598 132.00325,53.0673359 128.927091,53.0673359 C127.628479,53.0673359 127.004206,52.490015 126.811088,51.57826 L126.090113,47.827963 L124.070811,47.9240878 C123.686292,50.13553 123.301772,52.5878563 122.773629,54.6061906 C123.97554,55.5182317 125.993411,56 127.580414,56 C130.898042,56 135.944865,55.5665802 140.558817,44.6077828 L148.29871,26.3426436 C148.924127,24.8521372 149.163594,24.7079501 150.990349,23.986442 L152,23.6028012 L152,21.9203314 L147.432968,22.1606433 L142.530054,21.9203314 L142.530054,23.6028012 L143.779171,23.986442 C145.028575,24.3717994 145.606499,24.8521372 145.606499,25.7175464 C145.606499,26.1498218 145.461732,26.5826694 145.220835,27.2549707 C144.49986,29.082772 140.029244,39.9454447 138.828764,42.2532978 L140.028958,41.819878 C137.913527,36.5807912 134.694317,27.8317194 134.213095,26.3429296 C134.116965,26.0542692 134.0689,25.8139572 134.0689,25.5725009 C134.0689,24.8037888 134.597615,24.1786916 135.751461,23.9386657 L137.337891,23.6030872 L137.337891,21.9206174 L130.751558,22.1609294 L125.512189,21.9206174 L125.512189,23.6030872 L126.377645,23.8911755 C127.579269,24.2756746 127.867945,24.6123975 128.58892,26.2945812 C132.577455,35.427866 134.45342,40.4260686 137.000006,46.9639843 L138.204205,43.2623219 Z" id="Shape"></path>
            <g id="Icon/IPanier_white" transform="translate(0.000000, 5.000000)">
                <path d="M16,19.5 L16,38 L34.5,38 L34.5,19.5 L16,19.5 Z M14,17.5 L36.5,17.5 L36.5,38 C36.5,39.1045695 35.6045695,40 34.5,40 L16,40 C14.8954305,40 14,39.1045695 14,38 L14,17.5 Z M28.875,25 L28.875,15.625 C28.875,13.6229678 27.2520322,12 25.25,12 C23.2479678,12 21.625,13.6229678 21.625,15.625 L21.625,25 L19.625,25 L19.625,15.625 C19.625,12.5183983 22.1433983,10 25.25,10 C28.3566017,10 30.875,12.5183983 30.875,15.625 L30.875,25 L28.875,25 Z M28.875,25 L28.875,15.625 C28.875,13.6229678 27.2520322,12 25.25,12 C23.2479678,12 21.625,13.6229678 21.625,15.625 L21.625,25 L19.625,25 L19.625,15.625 C19.625,12.5183983 22.1433983,10 25.25,10 C28.3566017,10 30.875,12.5183983 30.875,15.625 L30.875,25 L28.875,25 Z" id="Rectangle-6"></path>
            </g>
        </g>
    </g>
</svg>