<svg xmlns="http://www.w3.org/2000/svg" xmlns:xlink="http://www.w3.org/1999/xlink" width="200" height="60" viewBox="0 0 200 60">
    <defs>
        <path id="b" d="M97.285-20.602c8.448 5.461 11.168 11.49 9.88 13.743-.295.515-.762.752-1.431.722-1.897-.085-5.115-2.367-7.94-8.519a1.797 1.797 0 0 0-2.391-.884 1.815 1.815 0 0 0-.88 2.403 32.568 32.568 0 0 0 1.538 2.952l-11.684-5.374a1.796 1.796 0 0 0-2.33.78 1.817 1.817 0 0 0 .61 2.392c.047.03 2.474 1.592 6.24 4.024a1.84 1.84 0 0 0-.338.069c-1.061.327-5.753-1.121-9.187-4.625-3.063-3.127-3.034-5.876-2.471-7.632.713-2.224 2.007-3.646 3.955-4.348 3.877-1.395 10.172.25 16.43 4.297m3.257 40.69c.163.11.544.367.495 1.325a3.292 3.292 0 0 1-.078.583c-.408-.146-1.341-.626-3.01-2.206l-.02-.019c1.21-.158 2.119-.012 2.613.317m-.534 9.732c.262.223.671.802.831 2.28-.867-.582-2.005-1.514-3.025-2.384.225-.065.437-.113.634-.144 1.08-.163 1.441.146 1.56.248m1.731 17.834c.416.223 1.133.676 1.254 1.198.1.447-1.414 2.12-5.46 3.195-4.379 1.165-8.647.758-9.2-.864-.21-.983 0-1.709.657-2.28 1.168-1.015 3.174-1.168 3.833-.909a1.797 1.797 0 0 0 2.332-1.028c.11-.286.144-.581.112-.866 2.478.233 4.893.707 6.472 1.554M95.03 75.3c-2.701 1.24-5.333 2.282-7.593 2.994-3.22 1.013-4.792 1.082-5.487 1.013 1.17-1.328 5.382-3.66 9.508-4.216 1.516-.204 2.748-.126 3.572.21M79.642-28.309c-2.986 1.074-5.119 3.372-6.169 6.645-1.23 3.83-.044 7.838 3.334 11.286 3.739 3.816 9.844 6.46 12.807 5.545a1.813 1.813 0 0 0 1.194-2.262l-.017-.048c3.374 2.18 7.521 4.859 11.89 7.688l.04.025c1.096.671 1.757 1.178 2.152 1.532-.15.028-.305.052-.456.069l-16.24-4.556a1.798 1.798 0 0 0-2.212 1.238 1.814 1.814 0 0 0 1.205 2.24c6.62 2.023 15.546 6.45 15.09 9.506-.05.324-.175.506-.465.672-2.391 1.368-10.167-.688-15.42-2.727-.463-.247-.88-.393-1.262-.444l-.354-.046a1.805 1.805 0 0 0-2.02 1.559 1.81 1.81 0 0 0 1.55 2.031l.13.018.51.199c1.4.861 4.476 4.078 6.597 6.358-3.354 1.651-4.623 2.29-8.113 4.636-.834.06-1.535.288-2.11.686a7.848 7.848 0 0 0-1.084.876c-1.242 1.256-.558 2.42-.408 2.64.35.516 1.19 1.263 2.89.48.494-.228 1.09-.576 1.775-1.036.683.093 1.69.342 3.093.897a30.824 30.824 0 0 1 3.486 1.66c-1.795 1.104-3.543 2.318-4.978 3.314-.477.331-.92.64-1.3.896-.625.024-1.167.107-1.586.265-.953.36-2.575 1.178-2.72 2.603-.076.728.26 1.425.873 1.816.98.625 2.188.344 4.457-1.035a.625.625 0 0 0 .037-.023c1.515.111 4.094.538 7.49 1.45 3.114.836 5.434 1.679 6.854 2.323-1.306.457-3.38 1.035-6.275 1.61l-.347.068c-3.349-.166-6.553.029-8.164.393-2.357.532-2.22 2.065-2.122 2.524.278 1.293 1.428 1.628 2.613 1.674-1.122 1.392-1.494 3.174-1.048 5.122.008.036.017.072.028.108.667 2.265 2.716 3.487 5.306 3.945-3.564.643-8.892 1.857-11 3.647a1.818 1.818 0 0 0-.215 2.552 1.794 1.794 0 0 0 2.538.217c1.145-.974 5.806-2.438 12.5-3.356 6.054-.83 9.414-.668 10.961-.416-1.016.9-3.22 2.455-7.468 4.587-.855.43-1.68.824-2.463 1.183-1.118.192-2.199.403-3.195.627-1.432.323-2.584.65-3.423.969-.69.263-2.52.956-2.335 2.7a2 2 0 0 0 1.341 1.674c.46.163 1.812.642 8.68-2.479a76.261 76.261 0 0 1 3.18-.454c4.713-.575 7.747-.502 9.216-.254-.973.92-3.1 2.542-7.217 4.832-.868.483-1.754.956-2.647 1.414-1.861-2.286-5.152-2.39-7.66-2.05-2.497.338-5.33 1.27-7.774 2.559-1.92 1.01-4.34 2.63-4.967 4.602-.379 1.191-.079 2.36.822 3.21 1.18 1.112 3.798 2.185 12.88-1.33a82.758 82.758 0 0 0 4.698-1.999 2.7 2.7 0 0 1-.128.427c-1.1 2.863-6.849 4.954-8.779 5.462a1.813 1.813 0 0 0-1.29 2.208 1.8 1.8 0 0 0 2.195 1.298c.943-.246 9.265-2.552 11.232-7.657a6.19 6.19 0 0 0 .295-3.45c2.543-1.298 4.967-2.677 6.967-3.983 3.89-2.539 5.61-4.355 5.61-6.01 0-.275-.048-.545-.14-.814-.651-1.888-3.07-2.656-8.027-2.515 1.277-.82 2.447-1.68 3.26-2.498 1.245-1.254 1.672-2.469 1.27-3.614-.338-.963-1.208-1.642-2.584-2.018-1.495-.408-3.725-.506-6.175-.416 4.476-1.605 6.809-4.175 6.17-6.937-.422-1.822-1.906-3.222-4.431-4.186 1.617-.629 3.245-1.613 3.011-3.336-.158-1.176-1.185-1.92-1.945-2.375-2.292-1.377-6.756-2.774-10.17-3.621a63.664 63.664 0 0 0-2.72-.616c1.24-.836 2.635-1.743 3.975-2.51 4.18 3.646 6.678 5.639 8.77 4.661.577-.27 1.537-.994 1.516-2.865-.043-2.913-.752-4.917-2.169-6.125-1.146-.978-2.634-1.337-4.424-1.066-.958.144-2.053.532-3.207 1.066-1.257-.867-3.6-2.167-5.982-3.092l-.215-.082c1.449-.86 2.696-1.473 4.855-2.536l.567-.28.157-.075a35.316 35.316 0 0 0 1.393 1.436c1.852 1.754 4.586 3.973 6.938 3.026.767-.309 2.075-1.22 2.213-3.847.105-1.96-.643-3.568-2.103-4.54-1.785-1.187-4.467-1.288-7.472-.347a257.936 257.936 0 0 0-2.183-2.338c5.069 1.243 8.576 1.253 10.7.038 1.255-.718 2.031-1.852 2.245-3.28.276-1.83-.43-3.638-2.103-5.405l.04.012c.183.052.373.073.563.064.932-.041 4.017-.355 4.6-2.64.488-1.903-1.146-3.537-3.024-4.848l18.553 8.535a1.797 1.797 0 0 0 2.387-.893 1.814 1.814 0 0 0-.888-2.4l-16.45-7.569c.299-.307.565-.658.79-1.052.513-.898.767-1.942.766-3.083 0-1.748-.595-3.723-1.766-5.74-1.986-3.423-5.463-6.802-10.055-9.77-7.286-4.71-14.61-6.452-19.591-4.66m37.037 70.831c.476.078.539.494.539.87v.213l-1.023-.165v-.204c0-.353.024-.785.484-.714m-2.091.015v2.724l5.883.933v-2.072l-1.77-.282v-1.098c0-1.202-.75-2.072-1.952-2.269-1.459-.227-2.161.683-2.161 2.064m3.753-5.948l-1.794-.682v-.079c.249 0 .507.008.756-.015l1.038-.087v.863zm-3.753.181l5.884 2.99v-2.276l-.734-.29v-1.625l.734-.078v-2.276l-5.884 1.177v2.378zm2.114-9.448c.437.07.492.432.492.785v.15l-.999-.158v-.165c0-.368.055-.682.507-.612m-2.114.031c0-1.333.562-2.378 2.044-2.142.89.141 1.264.55 1.53 1.39l.046.007c.086-.094.18-.212.352-.306l1.911-.981v2.48l-1.888.643v.04l1.888.298v2.103l-5.883-.934v-2.598zm5.884-4.307l-5.884-.935v-2.15l5.884.935v2.15zm-4.402-8.24c0 .188.07.471.313.51.218.032.25-.228.288-.384l.11-.471c.202-.88.687-1.46 1.685-1.303 1.405.228 2.1 1.625 2.1 2.904 0 .745-.204 1.577-.539 2.19l-1.662-.926.086-.095c.296-.338.538-.76.538-1.255 0-.212-.086-.566-.351-.605-.266-.047-.289.236-.328.424l-.078.424c-.148.816-.64 1.444-1.56 1.295-1.398-.22-2.178-1.625-2.178-2.912 0-.675.164-1.271.515-1.797l1.506.824c-.25.33-.445.714-.445 1.177z"/>
        <filter id="a" width="125.9%" height="112%" x="-13%" y="-4.3%" filterUnits="objectBoundingBox">
            <feOffset dy="2" in="SourceAlpha" result="shadowOffsetOuter1"/>
            <feGaussianBlur in="shadowOffsetOuter1" result="shadowBlurOuter1" stdDeviation="2"/>
            <feColorMatrix in="shadowBlurOuter1" values="0 0 0 0 0 0 0 0 0 0 0 0 0 0 0 0 0 0 0.5 0"/>
        </filter>
    </defs>
    <g fill="none" fill-rule="evenodd" transform="rotate(90 100 29.5)">
        <use fill="#000" filter="url(#a)" xlink:href="#b"/>
        <use fill="#FFF" xlink:href="#b"/>
    </g>
</svg>
